<?xml version="1.0" encoding="utf-8"?>
<!-- Generator: Adobe Illustrator 18.0.0, SVG Export Plug-In . SVG Version: 6.00 Build 0)  -->
<!DOCTYPE svg PUBLIC "-//W3C//DTD SVG 1.1//EN" "http://www.w3.org/Graphics/SVG/1.1/DTD/svg11.dtd">
<svg version="1.1" id="Слой_1" xmlns="http://www.w3.org/2000/svg" xmlns:xlink="http://www.w3.org/1999/xlink" x="0px" y="0px"
	 viewBox="0 0 7086.6 1417.3" enable-background="new 0 0 7086.6 1417.3" xml:space="preserve">
<rect x="12" y="-73.5" fill="#FFFFFF" width="7073.7" height="1517.7"/>
<g>
	<path fill="#115F8E" d="M7109.6,1462.2V540.6c-81.9-9.3-153.5-24.8-212.3-41.3c-34.2-17.5-353.4-168.7-907.6-7.2
		c-303.4,88.4-564.5,59-735.6,16c-19.7-11.5-188.5-74.5-331.4-89.7c-153.9-16.4-377.6-9.8-664.1,73.7
		c-323.7,94.3-599.2,54.6-768.7,7.2c-203.5-55.7-353.4-168.7-907.6-7.2c-303.4,88.4-564.5,59-735.6,16
		C1689.7,442,1633,433.7,1633,433.7c-156.2-30.3-391.6-33.7-692.6,84.6C510,687.5,246,575,112,555C65,548-5.5,541-5.5,541l0.8,921.2
		H7109.6z"/>
	<g>
		<circle fill="#FFFFFF" cx="199" cy="802.3" r="42"/>
		<circle fill="#FFFFFF" cx="2089" cy="844.3" r="42"/>
		<circle fill="#FFFFFF" cx="2683.3" cy="1296" r="42"/>
		<circle fill="#FFFFFF" cx="3844" cy="1302" r="42"/>
		<circle fill="#FFFFFF" cx="1327" cy="636.3" r="42"/>
		<circle fill="#FFFFFF" cx="693" cy="1329.1" r="23.2"/>
		<circle fill="#FFFFFF" cx="957" cy="1139.1" r="23.2"/>
		<circle fill="#FFFFFF" cx="2264" cy="794.8" r="35.2"/>
		<circle fill="#FFFFFF" cx="1910" cy="1004" r="23.2"/>
		<circle fill="#FFFFFF" cx="4395.1" cy="732.5" r="42"/>
		<circle fill="#FFFFFF" cx="5000.5" cy="1239.8" r="42"/>
		<circle fill="#FFFFFF" cx="5866" cy="875.2" r="23.2"/>
		<circle fill="#FFFFFF" cx="4624.4" cy="662.3" r="23.2"/>
		<circle fill="#FFFFFF" cx="3066" cy="1060.4" r="17.6"/>
		<circle fill="#FFFFFF" cx="5209" cy="796.3" r="42"/>
		<circle fill="#FFFFFF" cx="5795" cy="1322.3" r="42"/>
		<circle fill="#FFFFFF" cx="6964" cy="1254" r="42"/>
		<circle fill="#FFFFFF" cx="6186" cy="1012.4" r="17.6"/>
		<circle fill="#FFFFFF" cx="3342" cy="918" r="23.2"/>
	</g>
</g>
</svg>
