<!-- Generated by IcoMoon.io -->
<svg version="1.1" xmlns="http://www.w3.org/2000/svg" width="1024" height="1024" viewBox="0 0 1024 1024">
<title></title>
<g id="icomoon-ignore">
</g>
<path fill="#000" d="M407.415 93.733h209.139c9.242 0 18.108-3.681 24.647-10.218 6.547-6.542 10.218-15.403 10.218-24.649s-3.68-18.107-10.218-24.649c-6.539-6.542-15.403-10.218-24.647-10.218h-209.139c-9.242 0-18.107 3.68-24.649 10.218s-10.218 15.403-10.218 24.649c0 9.242 3.681 18.107 10.218 24.649s15.403 10.218 24.649 10.218z"></path>
<path fill="#000" d="M511.997 163.441c-82.735 0-163.603 24.538-232.38 70.486s-122.397 111.295-154.056 187.728c-31.659 76.432-39.935 160.527-23.811 241.673s55.968 155.674 114.467 214.174c58.499 58.492 133.024 98.336 214.172 114.467 81.143 16.135 165.239 7.847 241.675-23.815 76.427-31.66 141.755-85.267 187.728-154.056 45.964-68.778 70.486-149.664 70.486-232.38-0.126-110.9-44.243-217.216-122.641-295.636-78.416-78.416-184.739-122.519-295.636-122.641zM709.18 433.842l-172.539 172.539c-3.243 3.243-7.087 5.81-11.316 7.554-4.24 1.743-8.755 2.654-13.335 2.654s-9.12-0.894-13.329-2.654c-4.24-1.739-8.083-4.31-11.316-7.544-3.243-3.243-5.81-7.087-7.554-11.316-1.743-4.24-2.654-8.755-2.654-13.335s0.894-9.12 2.654-13.329c1.743-4.24 4.31-8.083 7.544-11.316l172.539-172.539c3.235-3.241 7.078-5.81 11.316-7.552s8.754-2.654 13.329-2.654c4.579 0 9.12 0.894 13.329 2.654s8.083 4.311 11.316 7.551c3.243 3.237 5.81 7.080 7.554 11.316s2.654 8.754 2.654 13.329c0 4.577-0.894 9.12-2.654 13.329s-4.31 8.083-7.544 11.316h-0.008z"></path>
</svg>
