<!-- Generated by IcoMoon.io -->
<svg version="1.1" xmlns="http://www.w3.org/2000/svg" width="1024" height="1024" viewBox="0 0 1024 1024">
<title></title>
<g id="icomoon-ignore">
</g>
<path fill="#000" d="M521.788 274.603c-0.021-0.711-0.047-1.423-0.105-2.139-0.063-0.719-0.153-1.428-0.247-2.134-0.053-0.366-0.068-0.729-0.126-1.095l-39.384-236.302c-0.846-5.104-2.694-9.991-5.43-14.382s-6.312-8.199-10.523-11.208c-4.207-3.008-8.968-5.158-14.009-6.326s-10.261-1.332-15.365-0.48c-5.104 0.85-9.987 2.699-14.377 5.439s-8.197 6.317-11.203 10.529c-3.005 4.212-5.152 8.973-6.317 14.016s-1.324 10.262-0.47 15.366l31.737 190.442h-91.349v-196.918c0-10.445-4.15-20.462-11.536-27.848s-17.404-11.536-27.848-11.536c-10.445 0-20.462 4.15-27.848 11.536s-11.536 17.404-11.536 27.848v196.918h-91.352l31.74-190.442c0.854-5.103 0.694-10.325-0.47-15.366s-3.311-9.804-6.317-14.016c-3.005-4.212-6.812-7.789-11.201-10.529s-9.275-4.588-14.379-5.439c-5.104-0.85-10.325-0.688-15.366 0.48s-9.802 3.318-14.011 6.326c-4.209 3.008-7.784 6.817-10.522 11.208s-4.582 9.279-5.429 14.382l-39.384 236.302c-0.060 0.368-0.075 0.731-0.128 1.095-0.096 0.706-0.185 1.417-0.245 2.134s-0.086 1.428-0.108 2.139c-0.010 0.37-0.055 0.734-0.055 1.106 0 0.351 0.025 0.694 0.026 1.044 0.007 0.242 0.007 0.484 0.020 0.724 0.476 50.283 18.407 98.838 50.726 137.363 32.319 38.522 77.020 64.621 126.455 73.826v495.951c0 10.444 4.15 20.463 11.536 27.847 7.386 7.388 17.404 11.537 27.848 11.537s20.462-4.149 27.848-11.537c7.386-7.383 11.536-17.403 11.536-27.847v-495.951c49.435-9.205 94.138-35.304 126.453-73.826 32.32-38.525 50.253-87.081 50.726-137.363 0.016-0.24 0.016-0.481 0.021-0.724 0-0.348 0.026-0.693 0.026-1.044 0-0.373-0.047-0.736-0.058-1.106z"></path>
<path fill="#000" d="M935.337 38.711c-0.011-0.812-0.058-1.626-0.121-2.441-0.047-0.553-0.095-1.1-0.162-1.647-0.084-0.681-0.19-1.36-0.31-2.041-0.121-0.686-0.252-1.362-0.405-2.033-0.126-0.533-0.268-1.065-0.415-1.596-0.215-0.791-0.452-1.569-0.72-2.338-0.074-0.222-0.121-0.444-0.199-0.666-0.090-0.238-0.204-0.459-0.294-0.694-0.299-0.772-0.619-1.53-0.961-2.274-0.22-0.486-0.452-0.965-0.693-1.438-0.326-0.634-0.667-1.259-1.024-1.872-0.32-0.55-0.641-1.092-0.982-1.622-0.326-0.5-0.667-0.986-1.013-1.471-0.415-0.587-0.834-1.161-1.286-1.718-0.326-0.411-0.667-0.807-1.008-1.205-0.494-0.567-0.992-1.127-1.513-1.664-0.368-0.375-0.746-0.735-1.124-1.095-0.526-0.5-1.056-0.991-1.607-1.46-0.441-0.377-0.898-0.734-1.36-1.092-0.514-0.399-1.029-0.795-1.564-1.17-0.546-0.383-1.108-0.741-1.67-1.094-0.484-0.3-0.961-0.603-1.455-0.882-0.641-0.366-1.297-0.702-1.958-1.031-0.457-0.225-0.908-0.452-1.371-0.661-0.698-0.313-1.407-0.596-2.127-0.87-0.473-0.18-0.945-0.361-1.434-0.524-0.688-0.233-1.386-0.437-2.090-0.633-0.562-0.156-1.124-0.303-1.691-0.434-0.625-0.142-1.255-0.265-1.89-0.378-0.693-0.126-1.381-0.23-2.085-0.318-0.535-0.065-1.071-0.118-1.617-0.164-0.804-0.065-1.612-0.106-2.431-0.123-0.257-0.005-0.51-0.038-0.767-0.038-0.236 0-0.473 0.032-0.709 0.036-0.804 0.015-1.612 0.058-2.426 0.122-0.551 0.043-1.103 0.094-1.649 0.161-0.683 0.084-1.36 0.19-2.043 0.31s-1.36 0.252-2.032 0.409c-0.535 0.122-1.066 0.261-1.596 0.409-0.788 0.217-1.57 0.454-2.337 0.721-0.22 0.075-0.447 0.122-0.667 0.202-0.489 0.178-0.966 0.39-1.45 0.57-0.178 0.075-0.368 0.139-0.551 0.217-101.463 38.131-182.714 162.601-241.505 370.099-26.67 95.746-46.016 193.386-57.878 292.071-0.588 5.493-0.016 11.048 1.686 16.305 1.701 5.261 4.485 10.103 8.181 14.21 3.691 4.112 8.208 7.399 13.254 9.651 5.046 2.247 10.513 3.413 16.037 3.413h236.302v275.685c0 10.444 4.149 20.463 11.537 27.847 7.383 7.388 17.403 11.537 27.847 11.537s20.463-4.149 27.847-11.537c7.388-7.383 11.537-17.403 11.537-27.847v-945.207c0-0.236-0.032-0.462-0.037-0.697z"></path>
</svg>
